# xmcd CD database file
#
# Track frame offsets:
#	150
#	10989
#	23900
#	34840
#	44233
#	63891
#	74444
#	86492
#	99342
#	117031
#	130142
#	143233
#
# Disc length: 2047 seconds
#
# Revision: 0
# Processed by: cddbd v1.5PL3 Copyright (c) Steve Scherf et al.
# Submitted via: CDex 1.51
#
DISCID=a207fd0c
DTITLE=Vicki Price - Mississippi Summer
DYEAR=1999
DGENRE=Blues
TTITLE0=Mississippi Summer
TTITLE1=Lightnin'
TTITLE2=She Cried Out
TTITLE3=Backroads
TTITLE4=2nd Best
TTITLE5=Drinkin' Mans Blues
TTITLE6=Garden Song
TTITLE7=Springtime
TTITLE8=Strong Woman
TTITLE9=Back Home
TTITLE10=I Wonder
TTITLE11=Lifetime
EXTD=YEAR: 1999
EXTT0=
EXTT1=
EXTT2=
EXTT3=
EXTT4=
EXTT5=
EXTT6=
EXTT7=
EXTT8=
EXTT9=
EXTT10=
EXTT11=
PLAYORDER=
